<svg width="22" height="24" viewBox="0 0 22 24" fill="none" xmlns="http://www.w3.org/2000/svg">
<mask id="path-1-outside-1_27750_17" maskUnits="userSpaceOnUse" x="0.162598" y="-0.26667" width="22" height="25" fill="black">
<rect fill="white" x="0.162598" y="-0.26667" width="22" height="25"/>
<path d="M17.5001 12.5968V10.663C17.5174 9.17108 17.0299 7.71776 16.1168 6.53762C15.2038 5.35746 13.919 4.52059 12.4708 4.16309C13.0304 3.57404 13.1848 2.70871 12.8649 1.96326C12.5439 1.21677 11.8107 0.73333 10.9982 0.73333C10.1857 0.73333 9.45239 1.21677 9.13145 1.96326C8.81152 2.70873 8.9659 3.57404 9.5255 4.16309C8.09652 4.49621 6.82202 5.30262 5.90994 6.45232C4.9969 7.601 4.50025 9.02489 4.50025 10.4925V12.5968C4.50736 15.5107 3.34954 18.3057 1.28275 20.3602C1.16595 20.476 1.1304 20.6517 1.19337 20.804C1.25736 20.9563 1.40564 21.0559 1.57118 21.0549H8.18896C8.40123 22.4442 9.59561 23.47 11.0001 23.47C12.4045 23.47 13.5991 22.4442 13.8112 21.0549H20.429C20.5945 21.0559 20.7428 20.9563 20.8068 20.804C20.8698 20.6517 20.8342 20.476 20.7174 20.3602C18.6506 18.3056 17.4929 15.5107 17.4999 12.5968L17.5001 12.5968ZM11.0001 1.55485C11.4927 1.55485 11.9375 1.85141 12.1264 2.30742C12.3143 2.76242 12.2107 3.28648 11.8624 3.63587C11.513 3.98421 10.9889 4.08782 10.5339 3.89992C10.0779 3.71102 9.78134 3.26617 9.78134 2.7736C9.78134 2.10025 10.3267 1.55485 11.0001 1.55485ZM11.0001 22.6799C10.0342 22.6799 9.20243 22.0004 9.00948 21.0549H12.9906C12.7976 22.0004 11.9658 22.6799 11 22.6799H11.0001ZM2.50121 20.2424C4.32324 18.1126 5.32169 15.3999 5.31233 12.5968V10.4924C5.3103 8.93443 5.9471 7.44442 7.07443 6.3701C8.20176 5.29456 9.72019 4.72987 11.276 4.80503C12.7588 4.89644 14.1493 5.5576 15.1568 6.64838C16.1653 7.74017 16.7127 9.1773 16.6873 10.663V12.5968C16.6782 15.3999 17.6766 18.1127 19.4985 20.2424H2.50121Z"/>
</mask>
<path d="M17.5001 12.5968V10.663C17.5174 9.17108 17.0299 7.71776 16.1168 6.53762C15.2038 5.35746 13.919 4.52059 12.4708 4.16309C13.0304 3.57404 13.1848 2.70871 12.8649 1.96326C12.5439 1.21677 11.8107 0.73333 10.9982 0.73333C10.1857 0.73333 9.45239 1.21677 9.13145 1.96326C8.81152 2.70873 8.9659 3.57404 9.5255 4.16309C8.09652 4.49621 6.82202 5.30262 5.90994 6.45232C4.9969 7.601 4.50025 9.02489 4.50025 10.4925V12.5968C4.50736 15.5107 3.34954 18.3057 1.28275 20.3602C1.16595 20.476 1.1304 20.6517 1.19337 20.804C1.25736 20.9563 1.40564 21.0559 1.57118 21.0549H8.18896C8.40123 22.4442 9.59561 23.47 11.0001 23.47C12.4045 23.47 13.5991 22.4442 13.8112 21.0549H20.429C20.5945 21.0559 20.7428 20.9563 20.8068 20.804C20.8698 20.6517 20.8342 20.476 20.7174 20.3602C18.6506 18.3056 17.4929 15.5107 17.4999 12.5968L17.5001 12.5968ZM11.0001 1.55485C11.4927 1.55485 11.9375 1.85141 12.1264 2.30742C12.3143 2.76242 12.2107 3.28648 11.8624 3.63587C11.513 3.98421 10.9889 4.08782 10.5339 3.89992C10.0779 3.71102 9.78134 3.26617 9.78134 2.7736C9.78134 2.10025 10.3267 1.55485 11.0001 1.55485ZM11.0001 22.6799C10.0342 22.6799 9.20243 22.0004 9.00948 21.0549H12.9906C12.7976 22.0004 11.9658 22.6799 11 22.6799H11.0001ZM2.50121 20.2424C4.32324 18.1126 5.32169 15.3999 5.31233 12.5968V10.4924C5.3103 8.93443 5.9471 7.44442 7.07443 6.3701C8.20176 5.29456 9.72019 4.72987 11.276 4.80503C12.7588 4.89644 14.1493 5.5576 15.1568 6.64838C16.1653 7.74017 16.7127 9.1773 16.6873 10.663V12.5968C16.6782 15.3999 17.6766 18.1127 19.4985 20.2424H2.50121Z" fill="#213F7D"/>
<path d="M17.5001 12.5968V10.663C17.5174 9.17108 17.0299 7.71776 16.1168 6.53762C15.2038 5.35746 13.919 4.52059 12.4708 4.16309C13.0304 3.57404 13.1848 2.70871 12.8649 1.96326C12.5439 1.21677 11.8107 0.73333 10.9982 0.73333C10.1857 0.73333 9.45239 1.21677 9.13145 1.96326C8.81152 2.70873 8.9659 3.57404 9.5255 4.16309C8.09652 4.49621 6.82202 5.30262 5.90994 6.45232C4.9969 7.601 4.50025 9.02489 4.50025 10.4925V12.5968C4.50736 15.5107 3.34954 18.3057 1.28275 20.3602C1.16595 20.476 1.1304 20.6517 1.19337 20.804C1.25736 20.9563 1.40564 21.0559 1.57118 21.0549H8.18896C8.40123 22.4442 9.59561 23.47 11.0001 23.47C12.4045 23.47 13.5991 22.4442 13.8112 21.0549H20.429C20.5945 21.0559 20.7428 20.9563 20.8068 20.804C20.8698 20.6517 20.8342 20.476 20.7174 20.3602C18.6506 18.3056 17.4929 15.5107 17.4999 12.5968L17.5001 12.5968ZM11.0001 1.55485C11.4927 1.55485 11.9375 1.85141 12.1264 2.30742C12.3143 2.76242 12.2107 3.28648 11.8624 3.63587C11.513 3.98421 10.9889 4.08782 10.5339 3.89992C10.0779 3.71102 9.78134 3.26617 9.78134 2.7736C9.78134 2.10025 10.3267 1.55485 11.0001 1.55485ZM11.0001 22.6799C10.0342 22.6799 9.20243 22.0004 9.00948 21.0549H12.9906C12.7976 22.0004 11.9658 22.6799 11 22.6799H11.0001ZM2.50121 20.2424C4.32324 18.1126 5.32169 15.3999 5.31233 12.5968V10.4924C5.3103 8.93443 5.9471 7.44442 7.07443 6.3701C8.20176 5.29456 9.72019 4.72987 11.276 4.80503C12.7588 4.89644 14.1493 5.5576 15.1568 6.64838C16.1653 7.74017 16.7127 9.1773 16.6873 10.663V12.5968C16.6782 15.3999 17.6766 18.1127 19.4985 20.2424H2.50121Z" stroke="#213F7D" stroke-width="0.8" mask="url(#path-1-outside-1_27750_17)"/>
</svg>
