<svg width="14" height="14" viewBox="0 0 14 14" fill="none" xmlns="http://www.w3.org/2000/svg">
<g clip-path="url(#clip0_5530_2525)">
<mask id="path-1-outside-1_5530_2525" maskUnits="userSpaceOnUse" x="-0.283691" y="-0.295044" width="14" height="14" fill="black">
<rect fill="white" x="-0.283691" y="-0.295044" width="14" height="14"/>
<path d="M6.9999 0.70547C5.22638 0.70547 3.7876 2.14369 3.7876 3.91777C3.7876 4.9705 4.2951 5.90353 5.07824 6.49027L5.48949 6.79761L5.00112 6.95839C4.25519 7.20394 3.55464 7.58621 2.94214 8.08987C1.81887 9.01355 1.03898 10.3031 0.744284 11.7178C0.663893 12.1028 0.758502 12.4933 1.00569 12.7974C1.25124 13.0992 1.61163 13.2709 2.00101 13.2709H6.51279C6.6506 13.2709 6.7567 13.1659 6.7567 13.027C6.7567 12.8887 6.6506 12.7826 6.51279 12.7826H2.00101C1.68382 12.7826 1.47437 12.6005 1.38414 12.4889V12.4878C1.23211 12.3002 1.17141 12.053 1.22117 11.8162C1.77789 9.14309 4.13443 7.19191 6.85729 7.12625H6.87314C6.91799 7.12789 6.95955 7.12953 6.99838 7.12953C7.03721 7.12953 7.07986 7.12789 7.12471 7.12625H7.14111C8.51925 7.15961 9.84269 7.67312 10.8818 8.58099C10.9857 8.67177 11.135 8.66247 11.2263 8.55857C11.3171 8.45466 11.3072 8.30536 11.2028 8.21404C10.5542 7.64747 9.80387 7.22201 8.99834 6.95731L8.51107 6.79708L8.92123 6.4892C9.7038 5.9024 10.2113 4.9695 10.2113 3.91726C10.2113 2.14374 8.7735 0.704956 6.99998 0.704956L6.9999 0.70547ZM6.99881 1.19329C8.49835 1.19329 9.72335 2.41719 9.72335 3.91727C9.72335 5.37089 8.57437 6.56635 7.13713 6.63803L7.12729 6.63912H7.11744C7.07643 6.63803 7.03705 6.63748 6.99932 6.63748C6.96158 6.63748 6.92221 6.63857 6.88119 6.63912H6.87135L6.8615 6.63803C5.51728 6.57131 4.46289 5.50928 4.32681 4.18523H4.27376V3.91725C4.27376 2.41771 5.49876 1.19327 6.9983 1.19327L6.99881 1.19329ZM12.997 8.97197C12.9357 8.98181 12.8799 9.01517 12.8395 9.0715L10.3014 12.6131C10.1729 12.7624 10.0061 12.7996 9.91532 12.8056C9.8218 12.8121 9.64407 12.7957 9.49532 12.6557L9.49368 12.6535L7.86128 11.061C7.76284 10.9648 7.613 10.967 7.51621 11.066C7.41996 11.1644 7.4216 11.3137 7.52003 11.4105L9.15523 13.0062C9.34992 13.1916 9.61133 13.295 9.8793 13.295C9.9061 13.295 9.92852 13.295 9.94711 13.2933H9.94875C10.2391 13.2742 10.5126 13.1315 10.6952 12.904L10.6969 12.9018L10.6985 12.9001C10.7056 12.8914 10.7062 12.8903 10.7007 12.8979L10.7023 12.8958L13.237 9.35642C13.3174 9.24431 13.2923 9.0961 13.1802 9.01517C13.1244 8.9747 13.0588 8.96267 12.9975 8.97251L12.997 8.97197Z"/>
</mask>
<path d="M6.9999 0.70547C5.22638 0.70547 3.7876 2.14369 3.7876 3.91777C3.7876 4.9705 4.2951 5.90353 5.07824 6.49027L5.48949 6.79761L5.00112 6.95839C4.25519 7.20394 3.55464 7.58621 2.94214 8.08987C1.81887 9.01355 1.03898 10.3031 0.744284 11.7178C0.663893 12.1028 0.758502 12.4933 1.00569 12.7974C1.25124 13.0992 1.61163 13.2709 2.00101 13.2709H6.51279C6.6506 13.2709 6.7567 13.1659 6.7567 13.027C6.7567 12.8887 6.6506 12.7826 6.51279 12.7826H2.00101C1.68382 12.7826 1.47437 12.6005 1.38414 12.4889V12.4878C1.23211 12.3002 1.17141 12.053 1.22117 11.8162C1.77789 9.14309 4.13443 7.19191 6.85729 7.12625H6.87314C6.91799 7.12789 6.95955 7.12953 6.99838 7.12953C7.03721 7.12953 7.07986 7.12789 7.12471 7.12625H7.14111C8.51925 7.15961 9.84269 7.67312 10.8818 8.58099C10.9857 8.67177 11.135 8.66247 11.2263 8.55857C11.3171 8.45466 11.3072 8.30536 11.2028 8.21404C10.5542 7.64747 9.80387 7.22201 8.99834 6.95731L8.51107 6.79708L8.92123 6.4892C9.7038 5.9024 10.2113 4.9695 10.2113 3.91726C10.2113 2.14374 8.7735 0.704956 6.99998 0.704956L6.9999 0.70547ZM6.99881 1.19329C8.49835 1.19329 9.72335 2.41719 9.72335 3.91727C9.72335 5.37089 8.57437 6.56635 7.13713 6.63803L7.12729 6.63912H7.11744C7.07643 6.63803 7.03705 6.63748 6.99932 6.63748C6.96158 6.63748 6.92221 6.63857 6.88119 6.63912H6.87135L6.8615 6.63803C5.51728 6.57131 4.46289 5.50928 4.32681 4.18523H4.27376V3.91725C4.27376 2.41771 5.49876 1.19327 6.9983 1.19327L6.99881 1.19329ZM12.997 8.97197C12.9357 8.98181 12.8799 9.01517 12.8395 9.0715L10.3014 12.6131C10.1729 12.7624 10.0061 12.7996 9.91532 12.8056C9.8218 12.8121 9.64407 12.7957 9.49532 12.6557L9.49368 12.6535L7.86128 11.061C7.76284 10.9648 7.613 10.967 7.51621 11.066C7.41996 11.1644 7.4216 11.3137 7.52003 11.4105L9.15523 13.0062C9.34992 13.1916 9.61133 13.295 9.8793 13.295C9.9061 13.295 9.92852 13.295 9.94711 13.2933H9.94875C10.2391 13.2742 10.5126 13.1315 10.6952 12.904L10.6969 12.9018L10.6985 12.9001C10.7056 12.8914 10.7062 12.8903 10.7007 12.8979L10.7023 12.8958L13.237 9.35642C13.3174 9.24431 13.2923 9.0961 13.1802 9.01517C13.1244 8.9747 13.0588 8.96267 12.9975 8.97251L12.997 8.97197Z" fill="#545F7D"/>
<path d="M6.9999 0.70547C5.22638 0.70547 3.7876 2.14369 3.7876 3.91777C3.7876 4.9705 4.2951 5.90353 5.07824 6.49027L5.48949 6.79761L5.00112 6.95839C4.25519 7.20394 3.55464 7.58621 2.94214 8.08987C1.81887 9.01355 1.03898 10.3031 0.744284 11.7178C0.663893 12.1028 0.758502 12.4933 1.00569 12.7974C1.25124 13.0992 1.61163 13.2709 2.00101 13.2709H6.51279C6.6506 13.2709 6.7567 13.1659 6.7567 13.027C6.7567 12.8887 6.6506 12.7826 6.51279 12.7826H2.00101C1.68382 12.7826 1.47437 12.6005 1.38414 12.4889V12.4878C1.23211 12.3002 1.17141 12.053 1.22117 11.8162C1.77789 9.14309 4.13443 7.19191 6.85729 7.12625H6.87314C6.91799 7.12789 6.95955 7.12953 6.99838 7.12953C7.03721 7.12953 7.07986 7.12789 7.12471 7.12625H7.14111C8.51925 7.15961 9.84269 7.67312 10.8818 8.58099C10.9857 8.67177 11.135 8.66247 11.2263 8.55857C11.3171 8.45466 11.3072 8.30536 11.2028 8.21404C10.5542 7.64747 9.80387 7.22201 8.99834 6.95731L8.51107 6.79708L8.92123 6.4892C9.7038 5.9024 10.2113 4.9695 10.2113 3.91726C10.2113 2.14374 8.7735 0.704956 6.99998 0.704956L6.9999 0.70547ZM6.99881 1.19329C8.49835 1.19329 9.72335 2.41719 9.72335 3.91727C9.72335 5.37089 8.57437 6.56635 7.13713 6.63803L7.12729 6.63912H7.11744C7.07643 6.63803 7.03705 6.63748 6.99932 6.63748C6.96158 6.63748 6.92221 6.63857 6.88119 6.63912H6.87135L6.8615 6.63803C5.51728 6.57131 4.46289 5.50928 4.32681 4.18523H4.27376V3.91725C4.27376 2.41771 5.49876 1.19327 6.9983 1.19327L6.99881 1.19329ZM12.997 8.97197C12.9357 8.98181 12.8799 9.01517 12.8395 9.0715L10.3014 12.6131C10.1729 12.7624 10.0061 12.7996 9.91532 12.8056C9.8218 12.8121 9.64407 12.7957 9.49532 12.6557L9.49368 12.6535L7.86128 11.061C7.76284 10.9648 7.613 10.967 7.51621 11.066C7.41996 11.1644 7.4216 11.3137 7.52003 11.4105L9.15523 13.0062C9.34992 13.1916 9.61133 13.295 9.8793 13.295C9.9061 13.295 9.92852 13.295 9.94711 13.2933H9.94875C10.2391 13.2742 10.5126 13.1315 10.6952 12.904L10.6969 12.9018L10.6985 12.9001C10.7056 12.8914 10.7062 12.8903 10.7007 12.8979L10.7023 12.8958L13.237 9.35642C13.3174 9.24431 13.2923 9.0961 13.1802 9.01517C13.1244 8.9747 13.0588 8.96267 12.9975 8.97251L12.997 8.97197Z" stroke="#545F7D" stroke-width="0.6" mask="url(#path-1-outside-1_5530_2525)"/>
</g>
<defs>
<clipPath id="clip0_5530_2525">
<rect width="14" height="14" fill="white"/>
</clipPath>
</defs>
</svg>
