<svg width="40" height="40" viewBox="0 0 40 40" fill="none" xmlns="http://www.w3.org/2000/svg">
<circle opacity="0.1" cx="20" cy="20" r="20" fill="#5718FF"/>
<mask id="path-2-outside-1_5530_2770" maskUnits="userSpaceOnUse" x="9.95483" y="11.3211" width="22" height="19" fill="black">
<rect fill="white" x="9.95483" y="11.3211" width="22" height="19"/>
<path d="M20.9896 13.889C18.1706 13.889 16.1567 16.8516 17.4102 19.5816C18.8268 22.6632 23.1731 22.6603 24.5896 19.5816C25.8027 16.9445 23.9774 13.9258 20.9896 13.889V13.889ZM14.4158 29.6755C14.1345 29.6558 13.9704 29.4421 13.9704 29.143H13.9676C13.9676 27.7939 14.3426 26.5349 14.9876 25.4614H11.4354C11.1457 25.4614 10.9619 25.2505 10.9563 24.9373C10.9001 22.648 12.4432 20.4899 14.5834 19.6986C11.0828 17.7214 12.4881 12.3225 16.4819 12.3225C17.4503 12.3225 18.3691 12.6834 19.0761 13.3219C20.2957 12.8006 21.7038 12.8006 22.9235 13.3219C25.419 11.0719 29.4184 12.8597 29.4184 16.259C29.4184 17.7093 28.6299 19.0106 27.4159 19.6977C29.604 20.5058 31.012 22.5477 31.043 24.9815C31.043 25.2459 30.8292 25.4606 30.5639 25.4606L26.991 25.4615C27.6276 26.5181 28.0335 27.8896 28.0335 29.1993C28.0335 29.4637 27.8198 29.6784 27.5545 29.6784L14.4158 29.6755ZM15.6804 24.5042C16.5251 23.5189 17.6323 22.7746 18.8885 22.3752C17.9651 21.9355 17.2038 21.2117 16.706 20.3221C14.2244 20.2124 12.1573 22.0714 11.935 24.5043L15.6804 24.5042ZM23.1046 22.3808C24.3552 22.7783 25.4568 23.5245 26.2988 24.5042H30.0675C29.8453 22.0704 27.7781 20.2123 25.2965 20.322C24.7968 21.2145 24.0309 21.9383 23.1046 22.3807L23.1046 22.3808ZM27.0394 28.7202C26.6925 23.5292 20.3981 21.0654 16.7007 24.8024C15.6947 25.8196 15.0394 27.2305 14.9401 28.7202H27.0394ZM25.7438 19.2318C28.2479 19.0405 29.3738 15.9421 27.6 14.1505C26.5857 13.1249 24.9891 12.9899 23.82 13.8242C25.5188 15.0214 26.3129 17.1787 25.7438 19.2317V19.2318ZM18.1819 13.8243C16.2469 12.4415 13.5403 13.8328 13.5403 16.2608C13.5403 17.818 14.7234 19.1137 16.258 19.2318C15.689 17.1786 16.483 15.0214 18.1818 13.8243H18.1819Z"/>
</mask>
<path d="M20.9896 13.889C18.1706 13.889 16.1567 16.8516 17.4102 19.5816C18.8268 22.6632 23.1731 22.6603 24.5896 19.5816C25.8027 16.9445 23.9774 13.9258 20.9896 13.889V13.889ZM14.4158 29.6755C14.1345 29.6558 13.9704 29.4421 13.9704 29.143H13.9676C13.9676 27.7939 14.3426 26.5349 14.9876 25.4614H11.4354C11.1457 25.4614 10.9619 25.2505 10.9563 24.9373C10.9001 22.648 12.4432 20.4899 14.5834 19.6986C11.0828 17.7214 12.4881 12.3225 16.4819 12.3225C17.4503 12.3225 18.3691 12.6834 19.0761 13.3219C20.2957 12.8006 21.7038 12.8006 22.9235 13.3219C25.419 11.0719 29.4184 12.8597 29.4184 16.259C29.4184 17.7093 28.6299 19.0106 27.4159 19.6977C29.604 20.5058 31.012 22.5477 31.043 24.9815C31.043 25.2459 30.8292 25.4606 30.5639 25.4606L26.991 25.4615C27.6276 26.5181 28.0335 27.8896 28.0335 29.1993C28.0335 29.4637 27.8198 29.6784 27.5545 29.6784L14.4158 29.6755ZM15.6804 24.5042C16.5251 23.5189 17.6323 22.7746 18.8885 22.3752C17.9651 21.9355 17.2038 21.2117 16.706 20.3221C14.2244 20.2124 12.1573 22.0714 11.935 24.5043L15.6804 24.5042ZM23.1046 22.3808C24.3552 22.7783 25.4568 23.5245 26.2988 24.5042H30.0675C29.8453 22.0704 27.7781 20.2123 25.2965 20.322C24.7968 21.2145 24.0309 21.9383 23.1046 22.3807L23.1046 22.3808ZM27.0394 28.7202C26.6925 23.5292 20.3981 21.0654 16.7007 24.8024C15.6947 25.8196 15.0394 27.2305 14.9401 28.7202H27.0394ZM25.7438 19.2318C28.2479 19.0405 29.3738 15.9421 27.6 14.1505C26.5857 13.1249 24.9891 12.9899 23.82 13.8242C25.5188 15.0214 26.3129 17.1787 25.7438 19.2317V19.2318ZM18.1819 13.8243C16.2469 12.4415 13.5403 13.8328 13.5403 16.2608C13.5403 17.818 14.7234 19.1137 16.258 19.2318C15.689 17.1786 16.483 15.0214 18.1818 13.8243H18.1819Z" fill="#5718FF"/>
<path d="M20.9896 13.889C18.1706 13.889 16.1567 16.8516 17.4102 19.5816C18.8268 22.6632 23.1731 22.6603 24.5896 19.5816C25.8027 16.9445 23.9774 13.9258 20.9896 13.889V13.889ZM14.4158 29.6755C14.1345 29.6558 13.9704 29.4421 13.9704 29.143H13.9676C13.9676 27.7939 14.3426 26.5349 14.9876 25.4614H11.4354C11.1457 25.4614 10.9619 25.2505 10.9563 24.9373C10.9001 22.648 12.4432 20.4899 14.5834 19.6986C11.0828 17.7214 12.4881 12.3225 16.4819 12.3225C17.4503 12.3225 18.3691 12.6834 19.0761 13.3219C20.2957 12.8006 21.7038 12.8006 22.9235 13.3219C25.419 11.0719 29.4184 12.8597 29.4184 16.259C29.4184 17.7093 28.6299 19.0106 27.4159 19.6977C29.604 20.5058 31.012 22.5477 31.043 24.9815C31.043 25.2459 30.8292 25.4606 30.5639 25.4606L26.991 25.4615C27.6276 26.5181 28.0335 27.8896 28.0335 29.1993C28.0335 29.4637 27.8198 29.6784 27.5545 29.6784L14.4158 29.6755ZM15.6804 24.5042C16.5251 23.5189 17.6323 22.7746 18.8885 22.3752C17.9651 21.9355 17.2038 21.2117 16.706 20.3221C14.2244 20.2124 12.1573 22.0714 11.935 24.5043L15.6804 24.5042ZM23.1046 22.3808C24.3552 22.7783 25.4568 23.5245 26.2988 24.5042H30.0675C29.8453 22.0704 27.7781 20.2123 25.2965 20.322C24.7968 21.2145 24.0309 21.9383 23.1046 22.3807L23.1046 22.3808ZM27.0394 28.7202C26.6925 23.5292 20.3981 21.0654 16.7007 24.8024C15.6947 25.8196 15.0394 27.2305 14.9401 28.7202H27.0394ZM25.7438 19.2318C28.2479 19.0405 29.3738 15.9421 27.6 14.1505C26.5857 13.1249 24.9891 12.9899 23.82 13.8242C25.5188 15.0214 26.3129 17.1787 25.7438 19.2317V19.2318ZM18.1819 13.8243C16.2469 12.4415 13.5403 13.8328 13.5403 16.2608C13.5403 17.818 14.7234 19.1137 16.258 19.2318C15.689 17.1786 16.483 15.0214 18.1818 13.8243H18.1819Z" stroke="#5718FF" stroke-width="0.4" mask="url(#path-2-outside-1_5530_2770)"/>
<mask id="path-3-outside-2_5530_2770" maskUnits="userSpaceOnUse" x="17.7561" y="17.5851" width="6" height="4" fill="black">
<rect fill="white" x="17.7561" y="17.5851" width="6" height="4"/>
<path d="M22.3358 18.8438C22.6255 18.286 23.474 18.7229 23.1861 19.2807C22.2683 21.061 19.7333 21.061 18.8145 19.2807C18.5277 18.7229 19.3752 18.287 19.662 18.8438C20.2264 19.9332 21.7724 19.936 22.3359 18.8438H22.3358Z"/>
</mask>
<path d="M22.3358 18.8438C22.6255 18.286 23.474 18.7229 23.1861 19.2807C22.2683 21.061 19.7333 21.061 18.8145 19.2807C18.5277 18.7229 19.3752 18.287 19.662 18.8438C20.2264 19.9332 21.7724 19.936 22.3359 18.8438H22.3358Z" fill="#5718FF"/>
<path d="M22.3358 18.8438C22.6255 18.286 23.474 18.7229 23.1861 19.2807C22.2683 21.061 19.7333 21.061 18.8145 19.2807C18.5277 18.7229 19.3752 18.287 19.662 18.8438C20.2264 19.9332 21.7724 19.936 22.3359 18.8438H22.3358Z" stroke="#5718FF" stroke-width="0.4" mask="url(#path-3-outside-2_5530_2770)"/>
</svg>
