<svg width="14" height="14" viewBox="0 0 14 14" fill="none" xmlns="http://www.w3.org/2000/svg">
<mask id="path-1-outside-1_5530_2530" maskUnits="userSpaceOnUse" x="0.3125" y="-0.562561" width="13" height="15" fill="black">
<rect fill="white" x="0.3125" y="-0.562561" width="13" height="15"/>
<path d="M6.125 5.6875C6.82118 5.6875 7.48891 5.41077 7.98112 4.91859C8.4733 4.4264 8.75003 3.75866 8.75003 3.06247C8.75003 2.36628 8.4733 1.69856 7.98112 1.20635C7.48894 0.714163 6.82119 0.437439 6.125 0.437439C5.42881 0.437439 4.76109 0.714163 4.26888 1.20635C3.7767 1.69853 3.49997 2.36628 3.49997 3.06247C3.50052 3.75865 3.77779 4.42583 4.26943 4.91803C4.76161 5.40967 5.42879 5.68693 6.12499 5.68748L6.125 5.6875ZM6.125 1.31249C6.83266 1.31249 7.47086 1.73906 7.74158 2.39257C8.01283 3.04663 7.86299 3.79971 7.3626 4.30007C6.86221 4.80046 6.10917 4.9503 5.4551 4.67905C4.80158 4.40834 4.37503 3.77014 4.37503 3.06247C4.37612 2.09615 5.15871 1.31359 6.12503 1.31247L6.125 1.31249ZM6.125 6.5625C4.84914 6.56414 3.62572 7.07163 2.72342 7.97341C1.82162 8.87576 1.31418 10.0992 1.3125 11.375V13.125C1.3125 13.2409 1.35844 13.3525 1.44047 13.4345C1.5225 13.5166 1.63406 13.5625 1.74999 13.5625H10.5C10.6159 13.5625 10.7275 13.5166 10.8095 13.4345C10.8916 13.3525 10.9375 13.2409 10.9375 13.125V11.375C10.9358 10.0991 10.4284 8.87572 9.52657 7.97341C8.62423 7.07162 7.40081 6.56418 6.12499 6.5625H6.125ZM10.0625 12.6875H2.1875V11.375C2.1875 9.96841 2.93782 8.66852 4.15618 7.9653C5.37461 7.26147 6.87526 7.26147 8.09368 7.9653C9.31211 8.66857 10.0624 9.96855 10.0624 11.375L10.0625 12.6875ZM12.1745 6.30602C12.2593 6.3875 12.3074 6.49961 12.3085 6.61719C12.3096 6.73422 12.2631 6.84742 12.18 6.93001C12.0974 7.01313 11.9842 7.05962 11.8672 7.05853C11.7496 7.05743 11.6375 7.00931 11.556 6.92454L10.9375 6.30602L10.319 6.92454C10.1473 7.09079 9.87436 7.08806 9.70538 6.91962C9.53695 6.75064 9.5342 6.47775 9.70046 6.30603L10.319 5.68751L9.70046 5.06899C9.53421 4.89726 9.53694 4.62437 9.70538 4.45539C9.87436 4.28696 10.1473 4.28422 10.319 4.45047L10.9375 5.06899L11.556 4.45047C11.7277 4.28422 12.0006 4.28695 12.1696 4.45539C12.338 4.62437 12.3408 4.89726 12.1745 5.06899L11.556 5.68751L12.1745 6.30602Z"/>
</mask>
<path d="M6.125 5.6875C6.82118 5.6875 7.48891 5.41077 7.98112 4.91859C8.4733 4.4264 8.75003 3.75866 8.75003 3.06247C8.75003 2.36628 8.4733 1.69856 7.98112 1.20635C7.48894 0.714163 6.82119 0.437439 6.125 0.437439C5.42881 0.437439 4.76109 0.714163 4.26888 1.20635C3.7767 1.69853 3.49997 2.36628 3.49997 3.06247C3.50052 3.75865 3.77779 4.42583 4.26943 4.91803C4.76161 5.40967 5.42879 5.68693 6.12499 5.68748L6.125 5.6875ZM6.125 1.31249C6.83266 1.31249 7.47086 1.73906 7.74158 2.39257C8.01283 3.04663 7.86299 3.79971 7.3626 4.30007C6.86221 4.80046 6.10917 4.9503 5.4551 4.67905C4.80158 4.40834 4.37503 3.77014 4.37503 3.06247C4.37612 2.09615 5.15871 1.31359 6.12503 1.31247L6.125 1.31249ZM6.125 6.5625C4.84914 6.56414 3.62572 7.07163 2.72342 7.97341C1.82162 8.87576 1.31418 10.0992 1.3125 11.375V13.125C1.3125 13.2409 1.35844 13.3525 1.44047 13.4345C1.5225 13.5166 1.63406 13.5625 1.74999 13.5625H10.5C10.6159 13.5625 10.7275 13.5166 10.8095 13.4345C10.8916 13.3525 10.9375 13.2409 10.9375 13.125V11.375C10.9358 10.0991 10.4284 8.87572 9.52657 7.97341C8.62423 7.07162 7.40081 6.56418 6.12499 6.5625H6.125ZM10.0625 12.6875H2.1875V11.375C2.1875 9.96841 2.93782 8.66852 4.15618 7.9653C5.37461 7.26147 6.87526 7.26147 8.09368 7.9653C9.31211 8.66857 10.0624 9.96855 10.0624 11.375L10.0625 12.6875ZM12.1745 6.30602C12.2593 6.3875 12.3074 6.49961 12.3085 6.61719C12.3096 6.73422 12.2631 6.84742 12.18 6.93001C12.0974 7.01313 11.9842 7.05962 11.8672 7.05853C11.7496 7.05743 11.6375 7.00931 11.556 6.92454L10.9375 6.30602L10.319 6.92454C10.1473 7.09079 9.87436 7.08806 9.70538 6.91962C9.53695 6.75064 9.5342 6.47775 9.70046 6.30603L10.319 5.68751L9.70046 5.06899C9.53421 4.89726 9.53694 4.62437 9.70538 4.45539C9.87436 4.28696 10.1473 4.28422 10.319 4.45047L10.9375 5.06899L11.556 4.45047C11.7277 4.28422 12.0006 4.28695 12.1696 4.45539C12.338 4.62437 12.3408 4.89726 12.1745 5.06899L11.556 5.68751L12.1745 6.30602Z" fill="#545F7D"/>
<path d="M6.125 5.6875C6.82118 5.6875 7.48891 5.41077 7.98112 4.91859C8.4733 4.4264 8.75003 3.75866 8.75003 3.06247C8.75003 2.36628 8.4733 1.69856 7.98112 1.20635C7.48894 0.714163 6.82119 0.437439 6.125 0.437439C5.42881 0.437439 4.76109 0.714163 4.26888 1.20635C3.7767 1.69853 3.49997 2.36628 3.49997 3.06247C3.50052 3.75865 3.77779 4.42583 4.26943 4.91803C4.76161 5.40967 5.42879 5.68693 6.12499 5.68748L6.125 5.6875ZM6.125 1.31249C6.83266 1.31249 7.47086 1.73906 7.74158 2.39257C8.01283 3.04663 7.86299 3.79971 7.3626 4.30007C6.86221 4.80046 6.10917 4.9503 5.4551 4.67905C4.80158 4.40834 4.37503 3.77014 4.37503 3.06247C4.37612 2.09615 5.15871 1.31359 6.12503 1.31247L6.125 1.31249ZM6.125 6.5625C4.84914 6.56414 3.62572 7.07163 2.72342 7.97341C1.82162 8.87576 1.31418 10.0992 1.3125 11.375V13.125C1.3125 13.2409 1.35844 13.3525 1.44047 13.4345C1.5225 13.5166 1.63406 13.5625 1.74999 13.5625H10.5C10.6159 13.5625 10.7275 13.5166 10.8095 13.4345C10.8916 13.3525 10.9375 13.2409 10.9375 13.125V11.375C10.9358 10.0991 10.4284 8.87572 9.52657 7.97341C8.62423 7.07162 7.40081 6.56418 6.12499 6.5625H6.125ZM10.0625 12.6875H2.1875V11.375C2.1875 9.96841 2.93782 8.66852 4.15618 7.9653C5.37461 7.26147 6.87526 7.26147 8.09368 7.9653C9.31211 8.66857 10.0624 9.96855 10.0624 11.375L10.0625 12.6875ZM12.1745 6.30602C12.2593 6.3875 12.3074 6.49961 12.3085 6.61719C12.3096 6.73422 12.2631 6.84742 12.18 6.93001C12.0974 7.01313 11.9842 7.05962 11.8672 7.05853C11.7496 7.05743 11.6375 7.00931 11.556 6.92454L10.9375 6.30602L10.319 6.92454C10.1473 7.09079 9.87436 7.08806 9.70538 6.91962C9.53695 6.75064 9.5342 6.47775 9.70046 6.30603L10.319 5.68751L9.70046 5.06899C9.53421 4.89726 9.53694 4.62437 9.70538 4.45539C9.87436 4.28696 10.1473 4.28422 10.319 4.45047L10.9375 5.06899L11.556 4.45047C11.7277 4.28422 12.0006 4.28695 12.1696 4.45539C12.338 4.62437 12.3408 4.89726 12.1745 5.06899L11.556 5.68751L12.1745 6.30602Z" stroke="#545F7D" stroke-width="0.4" mask="url(#path-1-outside-1_5530_2530)"/>
</svg>
