<svg width="16" height="16" viewBox="0 0 16 16" fill="none" xmlns="http://www.w3.org/2000/svg">
<mask id="path-1-outside-1_5530_2516" maskUnits="userSpaceOnUse" x="-0.556641" y="2.13611" width="17" height="11" fill="black">
<rect fill="white" x="-0.556641" y="2.13611" width="17" height="11"/>
<path d="M15.376 7.50363C14.5597 6.47988 11.616 3.13611 7.99968 3.13611C4.38336 3.13611 1.43968 6.47979 0.623359 7.50363C0.383359 7.79176 0.383359 8.20737 0.623359 8.51176C1.43962 9.51988 4.38336 12.8636 7.99968 12.8636C11.616 12.8636 14.5597 9.51992 15.376 8.49544C15.5997 8.22357 15.5997 7.77606 15.376 7.50356V7.50363ZM7.99968 11.8561C4.91152 11.8561 2.23968 8.86427 1.50336 7.99979C2.22336 7.10353 4.91152 4.14347 7.99968 4.14347C11.0878 4.14347 13.7597 7.10347 14.496 7.99979C13.7597 8.89604 11.0878 11.8561 7.99968 11.8561Z"/>
</mask>
<path d="M15.376 7.50363C14.5597 6.47988 11.616 3.13611 7.99968 3.13611C4.38336 3.13611 1.43968 6.47979 0.623359 7.50363C0.383359 7.79176 0.383359 8.20737 0.623359 8.51176C1.43962 9.51988 4.38336 12.8636 7.99968 12.8636C11.616 12.8636 14.5597 9.51992 15.376 8.49544C15.5997 8.22357 15.5997 7.77606 15.376 7.50356V7.50363ZM7.99968 11.8561C4.91152 11.8561 2.23968 8.86427 1.50336 7.99979C2.22336 7.10353 4.91152 4.14347 7.99968 4.14347C11.0878 4.14347 13.7597 7.10347 14.496 7.99979C13.7597 8.89604 11.0878 11.8561 7.99968 11.8561Z" fill="#545F7D"/>
<path d="M15.376 7.50363C14.5597 6.47988 11.616 3.13611 7.99968 3.13611C4.38336 3.13611 1.43968 6.47979 0.623359 7.50363C0.383359 7.79176 0.383359 8.20737 0.623359 8.51176C1.43962 9.51988 4.38336 12.8636 7.99968 12.8636C11.616 12.8636 14.5597 9.51992 15.376 8.49544C15.5997 8.22357 15.5997 7.77606 15.376 7.50356V7.50363ZM7.99968 11.8561C4.91152 11.8561 2.23968 8.86427 1.50336 7.99979C2.22336 7.10353 4.91152 4.14347 7.99968 4.14347C11.0878 4.14347 13.7597 7.10347 14.496 7.99979C13.7597 8.89604 11.0878 11.8561 7.99968 11.8561Z" stroke="#545F7D" stroke-width="0.4" mask="url(#path-1-outside-1_5530_2516)"/>
<mask id="path-2-outside-2_5530_2516" maskUnits="userSpaceOnUse" x="4.0083" y="4.00818" width="8" height="8" fill="black">
<rect fill="white" x="4.0083" y="4.00818" width="8" height="8"/>
<path d="M8.00014 5.00818C6.35198 5.00818 5.0083 6.35192 5.0083 8.00002C5.0083 9.64811 6.35204 10.9919 8.00014 10.9919C9.64823 10.9919 10.992 9.64811 10.992 8.00002C10.992 6.35192 9.64823 5.00818 8.00014 5.00818ZM8.00014 9.98386C6.91201 9.98386 6.01646 9.0876 6.01646 8.00018C6.01646 6.91205 6.91209 6.0165 8.00014 6.0165C9.08819 6.0165 9.98382 6.91213 9.98382 8.00018C9.98382 9.08823 9.08819 9.98386 8.00014 9.98386Z"/>
</mask>
<path d="M8.00014 5.00818C6.35198 5.00818 5.0083 6.35192 5.0083 8.00002C5.0083 9.64811 6.35204 10.9919 8.00014 10.9919C9.64823 10.9919 10.992 9.64811 10.992 8.00002C10.992 6.35192 9.64823 5.00818 8.00014 5.00818ZM8.00014 9.98386C6.91201 9.98386 6.01646 9.0876 6.01646 8.00018C6.01646 6.91205 6.91209 6.0165 8.00014 6.0165C9.08819 6.0165 9.98382 6.91213 9.98382 8.00018C9.98382 9.08823 9.08819 9.98386 8.00014 9.98386Z" fill="#545F7D"/>
<path d="M8.00014 5.00818C6.35198 5.00818 5.0083 6.35192 5.0083 8.00002C5.0083 9.64811 6.35204 10.9919 8.00014 10.9919C9.64823 10.9919 10.992 9.64811 10.992 8.00002C10.992 6.35192 9.64823 5.00818 8.00014 5.00818ZM8.00014 9.98386C6.91201 9.98386 6.01646 9.0876 6.01646 8.00018C6.01646 6.91205 6.91209 6.0165 8.00014 6.0165C9.08819 6.0165 9.98382 6.91213 9.98382 8.00018C9.98382 9.08823 9.08819 9.98386 8.00014 9.98386Z" stroke="#545F7D" stroke-width="0.4" mask="url(#path-2-outside-2_5530_2516)"/>
</svg>
